<?xml version="1.0" encoding="UTF-8" standalone="no"?>
<svg xmlns:svg="http://www.w3.org/2000/svg" xmlns="http://www.w3.org/2000/svg" width="64" height="64" viewBox="0 0 64 64" version="1.1">
  <path style="color:#000000;display:inline;overflow:visible;visibility:visible;opacity:1;fill:#3771c8;fill-opacity:1;fill-rule:nonzero;stroke:none;stroke-width:2;stroke-linecap:round;stroke-linejoin:round;stroke-miterlimit:4;stroke-dasharray:none;stroke-dashoffset:0;stroke-opacity:1;marker:none;paint-order:normal;enable-background:accumulate" d="M 29.014831,36.056621 A 32,11.999991 0 0 0 -7.8878677e-4,47.99998 32,11.999991 0 0 0 21.423041,59.310527 24,9.1288452 0 0 1 7.9992112,51.128886 24,9.1288452 0 0 1 22.477731,42.761699 c 0.91108,-2.562407 3.13305,-4.995144 6.5371,-6.705078 z m 5.98047,0.0059 c 3.39304,1.707432 5.60926,4.133618 6.52149,6.689453 a 24,9.1288452 0 0 1 14.48242,8.376953 24,9.1288452 0 0 1 -13.29883,8.166016 32,11.999991 0 0 0 21.29883,-11.294922 32,11.999991 0 0 0 -29.00391,-11.9375 z" />
  <path style="color:#000000;display:inline;overflow:visible;visibility:visible;opacity:1;fill:#ff6600;fill-opacity:1;fill-rule:nonzero;stroke:none;stroke-width:2;stroke-linecap:round;stroke-linejoin:round;stroke-miterlimit:4;stroke-dasharray:none;stroke-dashoffset:0;stroke-opacity:1;marker:none;paint-order:normal;enable-background:accumulate" d="M 41.774601,3.99998 C 3.6303712,4.7130373 -4.7416288,50.096892 29.813661,51.935527 c -9.76117,-1.464698 -9.03437,-12.195575 2.18555,-15.935547 11.17211,3.724036 11.9372,14.377245 2.30664,15.914062 25.80692,-1.76691 30.46662,-32.927309 3.71289,-27.345703 -17.85259,3.72455 -18.05748,-15.155399 3.75586,-20.568359 z" />
</svg>
